<?xml version="1.0" encoding="UTF-8"?> <svg xmlns="http://www.w3.org/2000/svg" id="Capa_1" data-name="Capa 1" viewBox="0 0 50 50"><defs><style>.cls-1{fill:#fff;}</style></defs><title>sMesa de trabajo 29 copia 4</title><path class="cls-1" d="M40.19,24.86a21.83,21.83,0,0,1,.7,5.06c0,3.87-2.54,7.58-7.54,11h0l2.27,3.3h0C41.78,40,44.9,35.19,44.9,29.92A25.3,25.3,0,0,0,44.1,24v0l-3.91.86v.06"></path><path class="cls-1" d="M9.81,24.86c.61-2.7,1.23-5.49-1.08-8.67L8.6,16c-.35-.4-1.65-1.84-2.8-3L9.88,8.82l1.52,1.47a5,5,0,0,0,7.06.11L15.65,7.54h0c-.15.15-.61.61-1.46-.15L9.78,3.18,0,13.22,1.7,14.6c.59.48,2.57,2.62,3.84,4,1.13,1.59.94,2.73.37,5.31l3.9.92h0"></path><path class="cls-1" d="M9.11,29.92a21.3,21.3,0,0,1,.7-5.06l-3.9-.92v0a25.3,25.3,0,0,0-.8,5.94c0,5.27,3.12,10.08,9.26,14.31l2.27-3.31c-5-3.43-7.52-7.13-7.52-11"></path><path class="cls-1" d="M33.27,2.49,33.42.35H16.58l.15,2.14c.07,1.16-.09,4.05-1.08,5.05l2.81,2.86h0c1.59-1.6,2.09-4.19,2.22-6h8.6c.13,1.84.63,4.42,2.22,6l2.82-2.86c-.9-.93-1.16-3.49-1.07-5"></path><path class="cls-1" d="M40.22,3.18l-4.38,4.2c-.87.78-1.33.32-1.48.17l0,0-2.82,2.86h0a4.94,4.94,0,0,0,7.07-.09l1.53-1.47L44.2,13c-1.15,1.19-2.45,2.63-2.8,3l-.13.15c-2.3,3.15-1.69,5.93-1.09,8.61l3.91-.86c-.57-2.58-.76-3.72.37-5.31,1.27-1.41,3.25-3.55,3.84-4L50,13.22Z"></path><path class="cls-1" d="M33.35,40.94A59.67,59.67,0,0,1,25,45.46l0,0a58.47,58.47,0,0,1-8.31-4.5l0,0-2.27,3.31h0a65.19,65.19,0,0,0,9.71,5.2,2.38,2.38,0,0,0,.69.2H25a1.91,1.91,0,0,0,.91-.22,64.79,64.79,0,0,0,9.71-5.19Z"></path></svg> 